<?xml version="1.0" standalone="no"?>
<!DOCTYPE svg PUBLIC "-//W3C//DTD SVG 20010904//EN"
 "http://www.w3.org/TR/2001/REC-SVG-20010904/DTD/svg10.dtd">
<svg version="1.0" xmlns="http://www.w3.org/2000/svg"
 width="1274.000000pt" height="1274.000000pt" viewBox="0 0 1274.000000 1274.000000"
 preserveAspectRatio="xMidYMid meet">
<metadata>
Created by potrace 1.14, written by Peter Selinger 2001-2017
</metadata>
<g transform="translate(0.000000,1274.000000) scale(0.100000,-0.100000)"
fill="#000000" stroke="none">
<path d="M10 6370 l0 -6340 6365 0 6365 0 0 6340 0 6340 -6365 0 -6365 0 0
-6340z m6665 4420 c1283 -85 2466 -719 3243 -1737 761 -999 1054 -2220 837
-3481 -111 -644 -401 -1309 -803 -1847 -284 -380 -654 -740 -1024 -998 -530
-369 -1160 -628 -1778 -731 -384 -64 -171 -59 -2812 -63 l-2408 -4 0 4436 0
4435 2298 0 c1403 0 2355 -4 2447 -10z"/>
<path d="M3810 6390 l0 -2651 1423 3 c1413 4 1423 4 1543 25 275 51 461 111
699 228 264 130 441 254 653 460 233 225 392 445 537 740 126 255 207 513 251
800 24 151 27 607 6 750 -94 622 -341 1124 -762 1546 -356 356 -783 591 -1260
693 -239 51 -166 49 -1677 53 l-1413 4 0 -2651z m2725 1810 c634 -60 1181
-446 1456 -1025 256 -542 228 -1194 -74 -1707 -263 -446 -673 -742 -1192 -859
-100 -23 -103 -23 -1117 -26 l-1018 -4 0 1816 0 1815 918 0 c557 0 960 -4
1027 -10z"/>
<path d="M5350 6396 l0 -1106 528 0 c297 0 564 4 612 10 448 54 804 406 895
883 20 107 20 317 0 425 -72 380 -332 702 -664 822 -168 61 -174 62 -798 67
l-573 5 0 -1106z"/>
</g>
</svg>
